<svg version="1.1" xmlns="http://www.w3.org/2000/svg" x="0px" y="0px" viewBox="0 0 1000 1000"
     enable-background="new 0 0 1000 1000" xml:space="preserve">
<g transform="scale(0.1,-0.1)"><g transform="translate(0,512)"><path fill="white" d="M4891.9,4918.8c-163-366.3-797.7-1980.9-797.7-2025c0-92.1,24.9-99.7,301.1-99.7h255V76.8l-1.9-2719.2l-253.1,258.9c-140,143.8-431.5,446.8-650.1,673.1l-398.9,414.2v699.9v698l86.3,61.4c255,180.3,349,540.8,216.7,830.3c-69,151.5-170.7,255-318.3,327.9c-115.1,57.5-143.8,63.3-301.1,63.3c-145.7,0-189.8-7.7-278.1-49.9c-408.5-191.8-521.6-736.4-220.5-1070c38.3-42.2,99.7-95.9,136.2-118.9l65.2-40.3v-811.1v-813.1l94-111.2c51.8-61.3,444.9-460.2,872.5-885.9l776.6-776.7l-86.3-92c-418-446.8-228.2-1177.4,354.8-1357.7c393.1-122.7,807.3,61.4,985.7,435.3c57.5,122.7,61.4,143.8,61.4,341.3c0,197.5-3.8,218.6-63.3,343.3c-70.9,153.4-255.1,345.2-383.5,402.7l-80.5,36.4v560v559.9l970.3,956.9c533.1,525.4,981.8,978,997.2,1006.7c21.1,44.1,26.9,166.8,26.9,630.9v575.3h170.7c120.8,0,176.4,7.7,191.8,26.8c15.3,17.3,21.1,205.2,17.2,646.2l-5.7,621.3l-684.6,5.8l-686.5,3.8v-632.8c0-732.5-21.1-671.2,228.2-671.2h155.3V631V157.3L5954.2-533l-690.3-690.3V786.3v2007.8h283.8c297.2,0,329.8,7.7,329.8,86.3c0,44.1-790.1,2025-836.1,2094C4993.5,5051.1,4941.7,5030,4891.9,4918.8z"/></g></g>
</svg>