<svg version="1.1" xmlns="http://www.w3.org/2000/svg" x="0px" y="0px" viewBox="0 0 1000 1000"
     enable-background="new 0 0 1000 1000" xml:space="preserve">
<g transform="scale(0.1,-0.1)"><g transform="translate(0,511)"><path fill="white" d="M4424.2,4080.8c-490.3-39.1-1073.3-150.4-1555.4-296.7C1937.6,3504,930.2,2945.7,217.4,2315.3l-117.4-103l298.7-395.5l300.8-393.5l86.5,80.3c414.1,383.2,1046.6,793.1,1631.6,1058.9c1264.9,576.8,2770.9,706.6,4138.8,356.4c951.8-243.1,1839.7-706.6,2579.3-1347.3l169-146.3l298.7,393.5l296.6,395.5l-115.4,103c-572.7,504.7-1347.3,972.4-2115.7,1277.3C6667.7,3994.3,5505.8,4167.4,4424.2,4080.8z"/><path fill="white" d="M4527.2,1858c-1110.4-115.4-2119.9-558.3-2939.8-1291.7l-148.3-133.9l249.3-331.7c136-183.4,261.6-346.1,276.1-362.6c22.7-24.7,49.4-6.2,177.2,109.2C3208.7,827.9,4652.9,1192.6,6062,836.2c613.9-156.6,1240.2-494.4,1738.7-937.4c179.2-158.6,218.4-185.4,236.9-158.6c12.4,16.5,131.8,173.1,265.7,348.2c131.9,175.1,241.1,329.6,241.1,342c0,28.8-321.4,307-535.6,463.5c-663.4,486.2-1442.1,805.5-2286.7,933.2C5466.6,1866.2,4776.5,1882.7,4527.2,1858z"/><path fill="white" d="M4712.6-358.7c-671.6-86.5-1258.7-368.8-1722.3-828.2c-94.8-94.8-173-179.2-173-191.6c0-10.3,121.5-181.3,271.9-381.1l271.9-362.6l41.2,59.8c96.8,136,344,368.8,508.9,480c300.8,199.8,616,302.8,997.1,323.4c558.3,28.8,1075.4-171,1475-568.6c96.8-96.8,195.7-204,216.3-234.9l41.2-59.8l271.9,362.6c150.4,199.8,272,370.8,272,381.1c0,35-350.2,366.7-513,484.1C6342.2-657.4,5919.9-472,5534.6-397.9C5365.7-364.9,4856.8-340.2,4712.6-358.7z"/><path fill="white" d="M4842.4-2589.8c-307-78.3-523.3-383.2-494.4-692.2c22.7-245.2,144.2-424.4,360.5-529.5c337.9-166.9,727.2-30.9,887.9,311.1c111.2,236.9,55.6,543.9-131.8,733.4C5316.2-2618.7,5038.1-2540.4,4842.4-2589.8z"/></g></g>
</svg>